<svg xmlns="http://www.w3.org/2000/svg" viewBox="0 0 100 100">
  <style>
    @media (prefers-color-scheme: dark) {
      svg { fill: white; }
    }
  </style>
  <path d="M 60.355469 7.453125 L 60.355469 23.525391 L 53.533203 23.525391 L 53.533203 30.753906 L 60.355469 30.753906 L 60.355469 61.484375 C 60.355469 68.560596 61.719819 73.446875 64.449219 76.142578 C 67.178618 78.804585 72.133238 80.134766 79.310547 80.134766 L 88.863281 80.134766 L 88.863281 72.351562 L 79.310547 72.351562 C 75.435474 72.351563 72.856631 71.695015 71.576172 70.380859 C 70.329409 69.066704 69.707031 66.100766 69.707031 61.484375 L 69.707031 30.753906 L 88.863281 30.753906 L 88.863281 23.525391 L 69.707031 23.525391 L 69.707031 7.453125 L 60.355469 7.453125 z M 39.542969 22.160156 C 35.061363 22.160156 31.252896 23.002685 28.119141 24.6875 C 24.985386 26.338618 22.442666 28.883291 20.488281 32.320312 L 20.488281 23.525391 L 11.136719 23.525391 L 11.136719 80.134766 L 20.488281 80.134766 L 20.488281 50.314453 C 20.488281 43.912158 21.886802 39.008794 24.683594 35.605469 C 27.514082 32.168447 31.555879 30.449219 36.8125 30.449219 C 38.295137 30.449219 39.644356 30.60103 40.857422 30.904297 C 42.104185 31.173867 43.250337 31.612217 44.294922 32.21875 L 44.244141 22.666016 C 43.300645 22.497534 42.44103 22.379893 41.666016 22.3125 C 40.891001 22.211411 40.183198 22.160156 39.542969 22.160156 z " />
</svg>
